<svg width="146" height="32" viewBox="0 0 146 32" fill="none" xmlns="http://www.w3.org/2000/svg">
    <path d="M32.8639 24.7197C31.5551 24.7197 30.4294 24.4424 29.4866 23.8878C28.5494 23.3277 27.8285 22.5514 27.3238 21.5587C26.8247 20.5661 26.5752 19.4237 26.5752 18.1316C26.5752 16.8228 26.8275 15.6749 27.3322 14.6878C27.8424 13.6951 28.566 12.9215 29.5032 12.367C30.4404 11.8069 31.5551 11.5268 32.8472 11.5268C33.9619 11.5268 34.9379 11.7292 35.7753 12.134C36.6126 12.5389 37.2753 13.1073 37.7633 13.8393C38.2514 14.5713 38.5203 15.4309 38.5702 16.418H35.2263C35.132 15.7802 34.8824 15.2673 34.4776 14.8791C34.0783 14.4854 33.5543 14.2885 32.9054 14.2885C32.3564 14.2885 31.8767 14.4382 31.4664 14.7377C31.0615 15.0316 30.7455 15.4614 30.5181 16.027C30.2907 16.5927 30.177 17.2775 30.177 18.0816C30.177 18.8968 30.2879 19.59 30.5098 20.1612C30.7371 20.7324 31.056 21.1677 31.4664 21.4672C31.8767 21.7667 32.3564 21.9164 32.9054 21.9164C33.3103 21.9164 33.6735 21.8332 33.9951 21.6668C34.3223 21.5005 34.5913 21.2592 34.802 20.9432C35.0183 20.6215 35.1597 20.2361 35.2263 19.7869H38.5702C38.5148 20.7629 38.2486 21.6225 37.7717 22.3656C37.3003 23.1031 36.6487 23.6799 35.8169 24.0958C34.985 24.5117 34.0007 24.7197 32.8639 24.7197Z" fill="#101828"/>
    <path d="M43.9142 17.0834V24.4701H40.3706V7.43418H43.8144V13.9474H43.9641C44.2524 13.1932 44.7183 12.6026 45.3616 12.1756C46.0048 11.7431 46.8117 11.5268 47.7822 11.5268C48.6695 11.5268 49.4431 11.7209 50.103 12.1091C50.7685 12.4917 51.2842 13.0435 51.6502 13.7644C52.0218 14.4798 52.2048 15.3366 52.1992 16.3348V24.4701H48.6556V16.967C48.6612 16.1795 48.4615 15.5667 48.0567 15.1286C47.6574 14.6905 47.0973 14.4715 46.3764 14.4715C45.8939 14.4715 45.4669 14.5741 45.0954 14.7793C44.7294 14.9845 44.441 15.2839 44.2303 15.6776C44.0251 16.0658 43.9197 16.5344 43.9142 17.0834Z" fill="#101828"/>
    <path d="M60.3423 24.7197C59.028 24.7197 57.8967 24.4535 56.9484 23.9211C56.0057 23.3832 55.2792 22.6235 54.769 21.6419C54.2588 20.6548 54.0037 19.4874 54.0037 18.1399C54.0037 16.8256 54.2588 15.6721 54.769 14.6794C55.2792 13.6868 55.9973 12.9132 56.9235 12.3586C57.8551 11.8041 58.9476 11.5268 60.2009 11.5268C61.0438 11.5268 61.8285 11.6627 62.555 11.9344C63.287 12.2006 63.9247 12.6026 64.4682 13.1406C65.0172 13.6785 65.4442 14.355 65.7492 15.1702C66.0542 15.9799 66.2067 16.9282 66.2067 18.0151V18.9883H55.4178V16.7923H62.8711C62.8711 16.2821 62.7601 15.8302 62.5383 15.4364C62.3165 15.0427 62.0087 14.7349 61.615 14.5131C61.2268 14.2857 60.7748 14.172 60.2591 14.172C59.7212 14.172 59.2443 14.2968 58.8284 14.5464C58.418 14.7904 58.0963 15.1203 57.8634 15.5362C57.6305 15.9466 57.5113 16.4041 57.5057 16.9088V18.9967C57.5057 19.6289 57.6222 20.1751 57.8551 20.6354C58.0936 21.0957 58.4291 21.4506 58.8616 21.7001C59.2942 21.9497 59.8071 22.0744 60.4005 22.0744C60.7943 22.0744 61.1547 22.019 61.4819 21.9081C61.8091 21.7972 62.0891 21.6308 62.3221 21.409C62.555 21.1872 62.7324 20.9154 62.8544 20.5938L66.1318 20.8101C65.9655 21.5975 65.6244 22.2852 65.1087 22.873C64.5985 23.4553 63.9386 23.91 63.1289 24.2372C62.3248 24.5589 61.3959 24.7197 60.3423 24.7197Z" fill="#101828"/>
    <path d="M73.8236 24.7197C72.5149 24.7197 71.3891 24.4424 70.4464 23.8878C69.5092 23.3277 68.7883 22.5514 68.2836 21.5587C67.7845 20.5661 67.535 19.4237 67.535 18.1316C67.535 16.8228 67.7873 15.6749 68.2919 14.6878C68.8021 13.6951 69.5258 12.9215 70.463 12.367C71.4002 11.8069 72.5149 11.5268 73.807 11.5268C74.9217 11.5268 75.8977 11.7292 76.7351 12.134C77.5724 12.5389 78.2351 13.1073 78.7231 13.8393C79.2111 14.5713 79.4801 15.4309 79.53 16.418H76.186C76.0918 15.7802 75.8422 15.2673 75.4374 14.8791C75.0381 14.4854 74.5141 14.2885 73.8652 14.2885C73.3162 14.2885 72.8365 14.4382 72.4262 14.7377C72.0213 15.0316 71.7052 15.4614 71.4779 16.027C71.2505 16.5927 71.1368 17.2775 71.1368 18.0816C71.1368 18.8968 71.2477 19.59 71.4696 20.1612C71.6969 20.7324 72.0158 21.1677 72.4262 21.4672C72.8365 21.7667 73.3162 21.9164 73.8652 21.9164C74.2701 21.9164 74.6333 21.8332 74.9549 21.6668C75.2821 21.5005 75.5511 21.2592 75.7618 20.9432C75.9781 20.6215 76.1195 20.2361 76.186 19.7869H79.53C79.4746 20.7629 79.2084 21.6225 78.7315 22.3656C78.2601 23.1031 77.6085 23.6799 76.7766 24.0958C75.9448 24.5117 74.9605 24.7197 73.8236 24.7197Z" fill="#101828"/>
    <path d="M84.5412 20.7934L84.5495 16.5428H85.0653L89.1579 11.6932H93.2256L87.7271 18.1149H86.887L84.5412 20.7934ZM81.3303 24.4701V7.43418H84.874V24.4701H81.3303ZM89.3159 24.4701L85.5561 18.9052L87.9185 16.4013L93.4668 24.4701H89.3159Z" fill="#101828"/>
    <path d="M106.613 11.6932L102.146 24.4701H98.1536L93.6866 11.6932H97.4299L100.083 20.835H100.217L102.862 11.6932H106.613Z" fill="#101828"/>
    <path d="M107.958 24.4701V11.6932H111.502V24.4701H107.958ZM109.738 10.0461C109.212 10.0461 108.76 9.87145 108.382 9.52208C108.011 9.16717 107.825 8.74293 107.825 8.24938C107.825 7.76137 108.011 7.34268 108.382 6.99331C108.76 6.6384 109.212 6.46094 109.738 6.46094C110.265 6.46094 110.714 6.6384 111.086 6.99331C111.463 7.34268 111.652 7.76137 111.652 8.24938C111.652 8.74293 111.463 9.16717 111.086 9.52208C110.714 9.87145 110.265 10.0461 109.738 10.0461Z" fill="#101828"/>
    <path d="M119.695 24.7197C118.381 24.7197 117.249 24.4535 116.301 23.9211C115.358 23.3832 114.632 22.6235 114.122 21.6419C113.611 20.6548 113.356 19.4874 113.356 18.1399C113.356 16.8256 113.611 15.6721 114.122 14.6794C114.632 13.6868 115.35 12.9132 116.276 12.3586C117.208 11.8041 118.3 11.5268 119.553 11.5268C120.396 11.5268 121.181 11.6627 121.907 11.9344C122.64 12.2006 123.277 12.6026 123.821 13.1406C124.37 13.6785 124.797 14.355 125.102 15.1702C125.407 15.9799 125.559 16.9282 125.559 18.0151V18.9883H114.77V16.7923H122.224C122.224 16.2821 122.113 15.8302 121.891 15.4364C121.669 15.0427 121.361 14.7349 120.968 14.5131C120.579 14.2857 120.127 14.172 119.612 14.172C119.074 14.172 118.597 14.2968 118.181 14.5464C117.771 14.7904 117.449 15.1203 117.216 15.5362C116.983 15.9466 116.864 16.4041 116.858 16.9088V18.9967C116.858 19.6289 116.975 20.1751 117.208 20.6354C117.446 21.0957 117.782 21.4506 118.214 21.7001C118.647 21.9497 119.16 22.0744 119.753 22.0744C120.147 22.0744 120.507 22.019 120.834 21.9081C121.162 21.7972 121.442 21.6308 121.675 21.409C121.907 21.1872 122.085 20.9154 122.207 20.5938L125.484 20.8101C125.318 21.5975 124.977 22.2852 124.461 22.873C123.951 23.4553 123.291 23.91 122.481 24.2372C121.677 24.5589 120.748 24.7197 119.695 24.7197Z" fill="#101828"/>
    <path d="M129.832 24.4701L126.355 11.6932H129.94L131.92 20.2777H132.037L134.1 11.6932H137.618L139.714 20.2278H139.823L141.769 11.6932H145.346L141.877 24.4701H138.126L135.93 16.4346H135.771L133.575 24.4701H129.832Z" fill="#101828"/>
    <path fill-rule="evenodd" clip-rule="evenodd" d="M13.4776 9.36579C11.9692 8.69368 10.2839 8.52717 8.67312 8.89111C7.06234 9.25504 5.61236 10.1299 4.53942 11.3853C3.46648 12.6406 2.82807 14.2091 2.71942 15.8569C2.61076 17.5047 3.03768 19.1435 3.93649 20.5289C4.8353 21.9142 6.15786 22.9719 7.7069 23.5442C9.25595 24.1165 10.9485 24.1727 12.5321 23.7045C14.1157 23.2363 15.5056 22.2687 16.4943 20.946C17.4831 19.6234 18.0178 18.0166 18.0188 16.3652V15.5371C18.0188 14.7907 18.6238 14.1857 19.3702 14.1857C20.1166 14.1857 20.7216 14.7907 20.7216 15.5371V16.3667C20.7203 18.601 19.9969 20.7749 18.6591 22.5644C17.3214 24.3538 15.441 25.6629 13.2985 26.2964C11.1559 26.9299 8.866 26.8538 6.77023 26.0795C4.67446 25.3053 2.88512 23.8743 1.66908 22C0.453043 20.1257 -0.124546 17.9085 0.0224589 15.6791C0.169464 13.4497 1.03319 11.3276 2.48481 9.62918C3.93643 7.93078 5.89818 6.74712 8.07747 6.25474C10.2568 5.76236 12.5368 5.98763 14.5776 6.89696C15.2594 7.20073 15.5658 7.99965 15.262 8.6814C14.9583 9.36315 14.1593 9.66956 13.4776 9.36579ZM20.3253 8.20238C20.8533 8.72987 20.8538 9.58554 20.3263 10.1136L11.3169 19.132C11.0635 19.3856 10.7197 19.5282 10.3611 19.5282C10.0026 19.5283 9.65873 19.386 9.40521 19.1324L6.7024 16.4296C6.17464 15.9019 6.17464 15.0462 6.7024 14.5184C7.23015 13.9907 8.08582 13.9907 8.61358 14.5184L10.3603 16.2652L18.4141 8.20333C18.9416 7.67531 19.7973 7.67488 20.3253 8.20238Z" fill="#219653"/>
</svg>
